<?xml version="1.0" encoding="UTF-8"?>
<svg version="1.1" xmlns="http://www.w3.org/2000/svg" width="512" height="191">
<path d="M0 0 C10.125 0 10.125 0 15 3 C15.14525497 11.05358138 14.71413279 18.97875848 14 27 C15.09699219 26.97679688 16.19398438 26.95359375 17.32421875 26.9296875 C18.778639 26.91092079 20.23306664 26.89272156 21.6875 26.875 C22.40873047 26.85824219 23.12996094 26.84148438 23.87304688 26.82421875 C28.04191118 26.78614693 31.29316168 27.0331062 35 29 C37 31 37 31 37 34 C34.59458071 35.20270964 32.89633409 35.20316663 30.2109375 35.31640625 C29.26992187 35.35830078 28.32890625 35.40019531 27.359375 35.44335938 C26.37453125 35.48267578 25.3896875 35.52199219 24.375 35.5625 C23.38242188 35.60568359 22.38984375 35.64886719 21.3671875 35.69335938 C18.91159919 35.79961079 16.45588363 35.90088427 14 36 C13.23102302 42.15143235 12.84061361 48.15162254 12.83203125 54.34765625 C12.82870285 55.20379013 12.82537445 56.05992401 12.82194519 56.94200134 C12.81691965 58.73777739 12.8145355 60.53356263 12.81469727 62.3293457 C12.81250288 65.05891337 12.79427903 67.78808126 12.77539062 70.51757812 C12.77245724 72.27343614 12.77047208 74.02929604 12.76953125 75.78515625 C12.76234573 76.59058365 12.75516022 77.39601105 12.74775696 78.22584534 C12.76866418 83.46637108 13.54932407 87.9601858 15 93 C17.37233611 92.96219702 17.37233611 92.96219702 20 92 C23.61829622 87.4253888 25.37276643 82.72704474 27.0625 77.1875 C27.32071533 76.35871338 27.57893066 75.52992676 27.8449707 74.67602539 C29.92239737 67.77119248 31.21498607 60.85580531 32.3671875 53.75 C33.80420084 45.23436538 35.8266271 38.29412347 42 32 C46.47748184 28.88523003 50.66561032 28.19229707 56 29 C68.64141957 32.20556153 68.64141957 32.20556153 73 37 C75.59210978 42.27030438 75.75628121 47.83392498 76.33984375 53.6015625 C76.62997096 56.95269414 76.62997096 56.95269414 78.52954102 58.3359375 C80.72534981 60.82085078 80.29220213 62.76361439 80.1875 66.0234375 C80.16429687 67.209375 80.14109375 68.3953125 80.1171875 69.6171875 C80.0393059 72.11459094 79.96118242 74.61198684 79.8828125 77.109375 C79.85960937 78.29789062 79.83640625 79.48640625 79.8125 80.7109375 C79.77769531 81.79681152 79.74289063 82.88268555 79.70703125 84.00146484 C80.04604894 87.47131093 80.78401142 89.31404755 83 92 C84.32 92 85.64 92 87 92 C89.80352878 83.95038302 90.03307276 75.45743057 90.76757812 67.02148438 C91.92539241 54.73330074 93.31076422 40.84550854 102.9375 32 C106.31277471 29.79573896 108.0054455 29.25467054 112 29 C114.78267816 29.60068683 117.35776574 30.57704619 120 31.625 C120.68578125 31.87378906 121.3715625 32.12257812 122.078125 32.37890625 C127.16367876 34.32966256 132.45768559 36.91537117 135 42 C135.08308638 43.37548156 135.10736016 44.75485796 135.09765625 46.1328125 C135.09443359 46.93847656 135.09121094 47.74414062 135.08789062 48.57421875 C135.07951172 49.41597656 135.07113281 50.25773437 135.0625 51.125 C135.05798828 51.97449219 135.05347656 52.82398438 135.04882812 53.69921875 C135.03702874 55.79950909 135.01909306 57.8997633 135 60 C136.175625 60.185625 136.175625 60.185625 137.375 60.375 C140 61 140 61 142 63 C141.690625 63.53625 141.38125 64.0725 141.0625 64.625 C139.02733059 69.17420221 138.86846859 74.02244171 138.71875 78.94921875 C138.68136719 80.04427734 138.64398438 81.13933594 138.60546875 82.26757812 C138.53479519 84.55923369 138.46448636 86.85090052 138.39453125 89.14257812 C138.35714844 90.23376953 138.31976563 91.32496094 138.28125 92.44921875 C138.25095703 93.44268311 138.22066406 94.43614746 138.18945312 95.4597168 C138 98 138 98 137 101 C138.11375 101.12375 139.2275 101.2475 140.375 101.375 C144 102 144 102 146 104 C145.625 106.125 145.625 106.125 145 108 C142.69 108 140.38 108 138 108 C138.00523682 108.85529297 138.01047363 109.71058594 138.01586914 110.59179688 C138.2778731 159.86180811 138.2778731 159.86180811 130.60107422 168.76074219 C127.47924226 171.17709154 123.97157874 170.74061106 120.1875 170.5625 C119.41857422 170.56056641 118.64964844 170.55863281 117.85742188 170.55664062 C112.33382262 170.43078646 108.03317042 169.28580665 103 167 C97.61745928 161.34143155 97.57821078 156.6402401 97.72265625 149.08984375 C98.49805446 132.63674244 107.96390813 120.21947104 119 109 C119.76570312 108.31292969 120.53140625 107.62585938 121.3203125 106.91796875 C123.16265291 105.145186 123.16265291 105.145186 123.390625 102.859375 C123.34421875 102.16328125 123.2978125 101.4671875 123.25 100.75 C123.1675 99.5125 123.085 98.275 123 97 C122.40251953 97.83144531 122.40251953 97.83144531 121.79296875 98.6796875 C121.26316406 99.40414062 120.73335937 100.12859375 120.1875 100.875 C119.40439453 101.95394531 119.40439453 101.95394531 118.60546875 103.0546875 C117 105 117 105 114 107 C107.90933681 107.36039427 101.90514417 105.60421463 97 102 C95.02249432 99.76330668 93.57478467 97.55902509 92 95 C91.59910156 95.433125 91.19820313 95.86625 90.78515625 96.3125 C87.573098 99.45900604 85.09304145 101.46638166 80.5 101.75 C76.06426303 101.44670175 73.59530152 99.68496313 70.41015625 96.703125 C68.91796344 94.90091984 67.95763617 93.12808037 67 91 C66.70867187 91.66386719 66.41734375 92.32773438 66.1171875 93.01171875 C61.50819672 102.93989071 61.50819672 102.93989071 56 106 C49.5112867 107.00128405 43.55539353 106.55545186 38 103 C36.02867098 100.47669886 34.51446233 97.81338321 33 95 C32.34 94.01 31.68 93.02 31 92 C30.63648438 92.59167969 30.27296875 93.18335937 29.8984375 93.79296875 C22.6912936 105.12112057 22.6912936 105.12112057 16.8671875 106.5078125 C12.64147126 106.83727512 9.66398594 106.24612999 6.25 103.6875 C-0.39153526 97.18497361 -2.83241339 88.09621403 -3.12939453 79.06518555 C-3.13593644 77.589044 -3.13679591 76.11286941 -3.1328125 74.63671875 C-3.13376923 73.84529984 -3.13472595 73.05388092 -3.13571167 72.23847961 C-3.13638948 70.57019979 -3.13456314 68.90191727 -3.13037109 67.23364258 C-3.12503867 64.70583025 -3.13031862 62.17819733 -3.13671875 59.65039062 C-3.13605748 58.02083295 -3.13477531 56.39127538 -3.1328125 54.76171875 C-3.13483673 54.01766281 -3.13686096 53.27360687 -3.13894653 52.50700378 C-3.11605672 47.27338999 -2.64619567 42.19427095 -2 37 C-2.97582031 36.80664062 -3.95164063 36.61328125 -4.95703125 36.4140625 C-6.22933594 36.15367188 -7.50164062 35.89328125 -8.8125 35.625 C-10.07707031 35.36976562 -11.34164062 35.11453125 -12.64453125 34.8515625 C-16 34 -16 34 -19 32 C-19 30.68 -19 29.36 -19 28 C-12.69403144 26.16553642 -9.09173981 26 -2 26 C-1.34 17.42 -0.68 8.84 0 0 Z M110.453125 44.39453125 C102.69538049 52.96558768 102.66850386 65.35668263 102.75 76.25 C102.74226563 77.29929688 102.73453125 78.34859375 102.7265625 79.4296875 C102.58443038 88.47382659 102.58443038 88.47382659 107 96 C109.81025419 96.15612523 111.37975955 95.52776244 113.51953125 93.70703125 C122.29010831 83.64862262 123.16435528 67.02331697 123.3125 54.3125 C123.35600586 53.05083008 123.35600586 53.05083008 123.40039062 51.76367188 C123.45965111 46.78032743 123.45965111 46.78032743 121.23046875 42.41796875 C116.81337997 39.60990706 114.03548175 41.16498236 110.453125 44.39453125 Z M50.3515625 46.14453125 C43.79362749 55.14747672 43.79936553 66.80539861 43.75 77.4375 C43.729375 78.54416016 43.70875 79.65082031 43.6875 80.79101562 C43.65804642 86.95049461 43.85819553 91.62586078 47 97 C49.31860784 98.49709519 49.31860784 98.49709519 52 98 C60.02915069 92.07372211 60.73383339 81.87476431 62.125 72.6875 C62.45888981 70.54525276 62.79473667 68.40330937 63.1328125 66.26171875 C63.27605957 65.32287842 63.41930664 64.38403809 63.56689453 63.41674805 C64 61 64 61 65 58 C65.35750457 52.54805531 65.43291713 48.54030976 62 44 C57.20684486 42.2816991 54.13438283 42.5336573 50.3515625 46.14453125 Z M119.375 116.5625 C116.27122136 120.22855738 114.26355473 124.17665441 112.25 128.5 C111.95657715 129.12849854 111.6631543 129.75699707 111.36083984 130.40454102 C108.52375289 136.70398856 106.71247038 142.64993964 106.6875 149.625 C106.67074219 150.71039063 106.65398437 151.79578125 106.63671875 152.9140625 C107.04350942 156.36959613 107.92427406 158.23236541 110 161 C112.33333333 162.33333333 112.33333333 162.33333333 115 162 C120.42835215 158.25185208 121.65968987 153.14713554 123 147 C123.48380257 142.79268185 123.64318451 138.60692782 123.75 134.375 C123.79253906 133.29476562 123.83507812 132.21453125 123.87890625 131.1015625 C124.07099622 125.26771903 123.92131258 119.76518329 123 114 C121.50786526 113.88357721 121.50786526 113.88357721 119.375 116.5625 Z " fill="#FEFEFE" transform="translate(174,18)"/>
<path d="M0 0 C10.40036901 3.74038074 10.40036901 3.74038074 13.58984375 9.05859375 C14.37828132 11.88275714 14.78078883 14.71598313 15.15234375 17.62109375 C15.35125736 19.12385399 15.56058624 20.62527921 15.78125 22.125 C15.86576416 22.78443604 15.95027832 23.44387207 16.03735352 24.12329102 C16.48692489 26.18687059 16.48692489 26.18687059 18.12646484 27.921875 C20.09968513 30.80302682 19.90389831 32.71406033 19.8125 36.1796875 C19.79380859 37.36240234 19.77511719 38.54511719 19.75585938 39.76367188 C19.72169922 40.99537109 19.68753906 42.22707031 19.65234375 43.49609375 C19.59224331 45.93207958 19.54111475 48.36830727 19.5 50.8046875 C19.47043213 51.88419678 19.44086426 52.96370605 19.41040039 54.07592773 C19.59539452 57.15085735 20.28383774 59.28850145 21.58984375 62.05859375 C24.07141596 61.69518359 25.25272588 61.51028762 26.78515625 59.45703125 C34.28784208 43.1276562 32.97505839 24.71341063 33.58984375 7.05859375 C43.09716718 6.94182007 43.09716718 6.94182007 46.58984375 9.05859375 C47.80164339 12.40986329 47.78955894 15.82139652 47.90625 19.35546875 C47.94814453 20.56074219 47.99003906 21.76601562 48.03320312 23.0078125 C48.07251953 24.26207031 48.11183594 25.51632813 48.15234375 26.80859375 C48.19552734 28.07832031 48.23871094 29.34804687 48.28320312 30.65625 C48.38924097 33.7902574 48.49130433 36.92434308 48.58984375 40.05859375 C48.97837524 38.83970459 48.97837524 38.83970459 49.37475586 37.59619141 C49.7228833 36.5241748 50.07101074 35.4521582 50.4296875 34.34765625 C50.7712085 33.28756348 51.11272949 32.2274707 51.46459961 31.13525391 C53.44347287 25.72458765 55.75981666 21.27861181 60.58984375 18.05859375 C64.95292965 18.37590909 67.6380127 19.08267822 71.58984375 21.05859375 C71.91984375 29.30859375 72.24984375 37.55859375 72.58984375 46.05859375 C73.36070312 44.0115625 74.1315625 41.96453125 74.92578125 39.85546875 C75.67657072 37.86617958 76.42809369 35.87716898 77.1796875 33.88818359 C77.70031184 32.50924138 78.22017712 31.13001232 78.73925781 29.75048828 C79.4869205 27.76388263 80.23733657 25.77833575 80.98828125 23.79296875 C81.43864746 22.59897461 81.88901367 21.40498047 82.35302734 20.17480469 C83.32803741 17.71822582 84.35333148 15.3903026 85.58984375 13.05859375 C92.06373188 12.66223325 96.52012769 13.9596426 101.875 17.62109375 C103.58984375 20.05859375 103.58984375 20.05859375 103.32421875 24.04296875 C103.01390239 25.63508508 102.68462368 27.22358352 102.33984375 28.80859375 C100.1076216 40.70845013 99.21517947 52.24726877 102.58984375 64.05859375 C106.40368998 62.99919202 108.52183893 61.56670593 110.625 58.1796875 C112.41030761 54.25490194 113.39907466 50.05463716 114.46484375 45.88671875 C115.58984375 43.05859375 115.58984375 43.05859375 117.71484375 41.66796875 C118.64296875 41.36632812 118.64296875 41.36632812 119.58984375 41.05859375 C120.58984375 42.05859375 120.58984375 42.05859375 120.90234375 45.93359375 C120.77700576 55.78829304 115.91257052 64.76159815 109.8046875 72.24609375 C106.22127456 75.1785516 102.90011155 74.66657739 98.4375 74.50390625 C95.58984375 74.05859375 95.58984375 74.05859375 92.58984375 71.99609375 C86.74714191 63.41462542 85.4978738 56.42726433 85.02734375 46.18359375 C84.98416016 45.30445313 84.94097656 44.4253125 84.89648438 43.51953125 C84.79115036 41.36603578 84.69006726 39.21233311 84.58984375 37.05859375 C83.45445732 40.34676725 82.33352371 43.63970276 81.21484375 46.93359375 C80.89773438 47.85140625 80.580625 48.76921875 80.25390625 49.71484375 C78.42350186 55.12979006 77.01146474 60.39945072 76.11352539 66.04858398 C75.58984375 68.05859375 75.58984375 68.05859375 73.40234375 70.24609375 C69.68657828 71.31953711 67.31490041 71.07451829 63.58984375 70.05859375 C60.84325591 68.10707081 59.79694725 66.90189756 58.9921875 63.625 C58.42944125 58.63677352 58.4852823 53.69861248 58.52734375 48.68359375 C58.53185547 47.66136719 58.53636719 46.63914063 58.54101562 45.5859375 C58.55274075 43.07676181 58.56915199 40.56770885 58.58984375 38.05859375 C57.92984375 38.05859375 57.26984375 38.05859375 56.58984375 38.05859375 C56.31841642 39.80850172 56.0477681 41.5585305 55.77734375 43.30859375 C55.50277344 45.06236328 55.50277344 45.06236328 55.22265625 46.8515625 C54.74264319 49.97469509 54.31168829 53.10224963 53.89453125 56.234375 C53.77182861 57.12415039 53.64912598 58.01392578 53.52270508 58.93066406 C53.27866272 60.70347015 53.04389244 62.47758105 52.8190918 64.25292969 C51.68229901 72.35544996 51.68229901 72.35544996 48.58984375 75.05859375 C44.41753813 75.52966051 41.72980961 75.43858237 37.77734375 74.12109375 C34.50453788 71.03530536 33.69260464 67.33515426 32.58984375 63.05859375 C32.17992187 63.55230469 31.77 64.04601562 31.34765625 64.5546875 C30.53941406 65.51568359 30.53941406 65.51568359 29.71484375 66.49609375 C28.91433594 67.45322266 28.91433594 67.45322266 28.09765625 68.4296875 C26.30470632 70.36663082 25.22867726 70.99332982 22.6015625 71.26171875 C17.77490793 71.35906304 14.42590361 71.33052716 10.58984375 68.05859375 C7.58984375 63.81721444 7.58984375 63.81721444 7.58984375 61.05859375 C6.92984375 61.05859375 6.26984375 61.05859375 5.58984375 61.05859375 C5.31140625 62.29609375 5.31140625 62.29609375 5.02734375 63.55859375 C2.95217148 68.61118709 -0.57735887 72.22579637 -4.41015625 76.05859375 C-11.44732862 76.8130182 -17.66448932 76.47937749 -23.41015625 72.05859375 C-27.41015625 67.15859375 -27.41015625 67.15859375 -27.41015625 63.05859375 C-28.07015625 63.05859375 -28.73015625 63.05859375 -29.41015625 63.05859375 C-29.63703125 63.75984375 -29.86390625 64.46109375 -30.09765625 65.18359375 C-31.75564241 68.81537296 -33.68373559 71.1326789 -36.41015625 74.05859375 C-40.81138994 75.52567165 -44.63147856 75.69383578 -49.03515625 74.12109375 C-55.65996722 68.36796843 -57.44063547 60.45348816 -58.41015625 52.05859375 C-58.62930163 46.99184272 -58.60097 41.9412841 -58.53515625 36.87109375 C-58.52509555 35.52409528 -58.51597522 34.17708944 -58.5078125 32.83007812 C-58.48446229 29.57272354 -58.45171395 26.31575826 -58.41015625 23.05859375 C-60.06015625 23.05859375 -61.71015625 23.05859375 -63.41015625 23.05859375 C-63.4359375 23.71601562 -63.46171875 24.3734375 -63.48828125 25.05078125 C-63.88404542 31.68882579 -64.88582309 38.06994103 -66.28515625 44.55859375 C-66.52733887 45.72430908 -66.52733887 45.72430908 -66.77441406 46.91357422 C-68.41854406 54.23234705 -68.41854406 54.23234705 -71.41015625 57.05859375 C-72.40015625 57.05859375 -73.39015625 57.05859375 -74.41015625 57.05859375 C-74.43795865 55.43369804 -74.45690085 53.80865092 -74.47265625 52.18359375 C-74.48425781 51.27867188 -74.49585938 50.37375 -74.5078125 49.44140625 C-74.43043365 46.76100297 -74.21375364 44.22980003 -73.90234375 41.57421875 C-73.06683416 33.69782334 -73.40329226 25.78237484 -73.53710938 17.875 C-73.54806641 16.66972656 -73.55902344 15.46445312 -73.5703125 14.22265625 C-73.58715088 13.1342041 -73.60398926 12.04575195 -73.62133789 10.92431641 C-73.41017146 8.05880013 -72.99618556 6.43256662 -71.41015625 4.05859375 C-69.53515625 3.37890625 -69.53515625 3.37890625 -67.41015625 3.18359375 C-66.70890625 3.10367188 -66.00765625 3.02375 -65.28515625 2.94140625 C-63.41015625 3.05859375 -63.41015625 3.05859375 -61.41015625 5.05859375 C-60.99609375 7.22265625 -60.99609375 7.22265625 -60.78515625 9.68359375 C-60.71039063 10.50085937 -60.635625 11.318125 -60.55859375 12.16015625 C-60.48511719 13.09988281 -60.48511719 13.09988281 -60.41015625 14.05859375 C-59.27578125 14.01734375 -58.14140625 13.97609375 -56.97265625 13.93359375 C-51.02152947 13.93359375 -45.40307689 14.72997999 -40.41015625 18.05859375 C-40.59191406 18.94998047 -40.59191406 18.94998047 -40.77734375 19.859375 C-41.13612698 21.63397208 -41.48692307 23.4101929 -41.83203125 25.1875 C-42.18324755 26.93171608 -42.56150684 28.67115459 -42.98828125 30.3984375 C-44.50630733 37.08859528 -44.59212239 43.66730957 -44.59765625 50.49609375 C-44.59886475 51.95450684 -44.59886475 51.95450684 -44.60009766 53.44238281 C-44.70532079 59.35621816 -44.70532079 59.35621816 -43.41015625 65.05859375 C-42.42015625 65.38859375 -41.43015625 65.71859375 -40.41015625 66.05859375 C-36.98037051 63.38655137 -36.0973741 59.81343733 -34.91015625 55.80859375 C-34.69439941 55.09767578 -34.47864258 54.38675781 -34.25634766 53.65429688 C-31.77074228 45.23344624 -30.11747694 36.6557964 -28.7734375 27.984375 C-27.25158271 18.50757422 -25.35399135 8.41638153 -17.83984375 1.79296875 C-12.2081546 -2.22707946 -6.54911119 -1.80794479 0 0 Z M-10.0625 16.30859375 C-17.8780155 26.45743707 -18.56717657 43.59442754 -17.0625 55.90234375 C-16.29238931 60.82069774 -15.69920127 64.19283946 -12.41015625 68.05859375 C-8.54097521 67.88272188 -6.89013425 67.57971272 -4.22265625 64.68359375 C0.52174375 56.29267144 1.29465171 46.1703447 2.58813477 36.78857422 C2.70471436 35.9482666 2.82129395 35.10795898 2.94140625 34.2421875 C3.04275879 33.48478271 3.14411133 32.72737793 3.24853516 31.94702148 C3.58984375 30.05859375 3.58984375 30.05859375 4.58984375 28.05859375 C5.02748403 22.47868023 4.50936419 18.76749769 1.58984375 14.05859375 C-3.23461967 12.23804152 -6.29947282 12.61580974 -10.0625 16.30859375 Z " fill="#FEFEFE" transform="translate(391.41015625,47.94140625)"/>
<path d="M0 0 C1.46015291 0.28241641 2.91809793 0.57626614 4.375 0.875 C5.18710938 1.03742187 5.99921875 1.19984375 6.8359375 1.3671875 C9 2 9 2 11 4 C11.31884766 6.79736328 11.31884766 6.79736328 11.4140625 10.3203125 C11.45273438 11.57714844 11.49140625 12.83398438 11.53125 14.12890625 C11.5621875 15.44761719 11.593125 16.76632813 11.625 18.125 C11.66318029 19.46486918 11.70223206 20.80471383 11.7421875 22.14453125 C11.8367203 25.42954619 11.92227156 28.71455138 12 32 C12.32613281 31.18813232 12.65226562 30.37626465 12.98828125 29.53979492 C13.42527344 28.46834229 13.86226562 27.39688965 14.3125 26.29296875 C14.74175781 25.23360107 15.17101562 24.1742334 15.61328125 23.08276367 C17.87033575 18.06518847 20.40791194 13.11089488 25.625 10.875 C28.36573187 11.01924905 29.77408567 11.388131 32 13 C36.84408386 19.62874633 35.32204541 31.74238296 35.5625 39.5 C35.60568359 40.799375 35.64886719 42.09875 35.69335938 43.4375 C35.7988251 46.62490845 35.90094448 49.81238698 36 53 C39.74891837 51.68773704 39.74891837 51.68773704 42.625 49.0625 C44.32548115 45.27506471 45.33970629 41.44600565 46.3515625 37.42578125 C47 35 47 35 48 33 C47.690625 32.34 47.38125 31.68 47.0625 31 C45.51766736 26.6381196 45.40475303 22.57825755 46 18 C49.98648064 10.02703872 56.53881576 6.99722074 64.5703125 4.046875 C71.37613781 1.96947046 77.4251906 0.8838143 84 4 C85.55985209 5.55985209 85.24452344 7.08906098 85.3125 9.25 C85.26904635 12.66111178 85.0379338 13.93256214 83.3125 17 C80.74295172 19.22231203 79.38286917 19.91325976 76 20 C75.01 19.34 74.02 18.68 73 18 C69.68690226 17.64754279 67.66989907 17.65599777 64.6875 19.1875 C62.50028906 21.53672657 62.07470357 22.78774663 62 26 C63.94524971 30.74640928 66.33965313 33.58895061 70.1875 36.9375 C71.15816406 37.79214844 72.12882812 38.64679688 73.12890625 39.52734375 C74.55009766 40.75130859 74.55009766 40.75130859 76 42 C77.54254896 43.3323125 79.08433967 44.66550398 80.625 46 C81.25664062 46.53625 81.88828125 47.0725 82.5390625 47.625 C85.06667666 50.00393097 85.02781206 51.28739128 85.375 54.875 C85.33220344 58.24981477 85.22123017 58.75980725 82.8125 61.375 C73.93438596 66.504577 64.32368144 66.81654728 54.4140625 64.74609375 C51.05896577 63.70916256 48.79623675 62.09717757 46 60 C42.81509993 59.7226499 42.81509993 59.7226499 40 62 C35.815964 63.04209136 32.19985216 63.44342362 28.125 61.9375 C22.77611207 57.06057277 22.37080574 50.92711035 21.8125 44.125 C21.73064453 43.24585938 21.64878906 42.36671875 21.56445312 41.4609375 C21.36556414 39.30825676 21.18129689 37.15423365 21 35 C18.26255947 43.52609937 15.61914079 51.99110835 13.67578125 60.7421875 C13 63 13 63 11 65 C6.35421425 65.86709164 2.95154692 65.63436461 -1 63 C-5.1786779 56.73198314 -4.05734302 48.62065383 -3.73046875 41.3671875 C-3.68940506 40.37171906 -3.64834137 39.37625061 -3.60603333 38.35061646 C-3.51766252 36.25785058 -3.42586427 34.16522689 -3.33081055 32.07275391 C-3.18764793 28.87830091 -3.06096888 25.68347425 -2.93554688 22.48828125 C-2.84734922 20.44787341 -2.75818935 18.40750689 -2.66796875 16.3671875 C-2.61312569 14.94199295 -2.61312569 14.94199295 -2.55717468 13.48800659 C-2.3240627 8.65104874 -1.85119854 4.54380808 0 0 Z M53 38 C51.41744803 42.32564205 50.54855348 46.428721 50 51 C51.62384142 52.14747465 53.24911056 53.2929291 54.875 54.4375 C55.77992188 55.07558594 56.68484375 55.71367188 57.6171875 56.37109375 C61.63827316 59.11993427 64.11259591 59.17455015 69 59 C69.66 58.67 70.32 58.34 71 58 C70.39738036 50.96943753 64.17225901 47.17739842 59.25 42.6875 C58.28578125 41.80449219 57.3215625 40.92148438 56.328125 40.01171875 C54.38670439 37.89103031 54.38670439 37.89103031 53 38 Z " fill="#FEFEFE" transform="translate(81,54)"/>
<path d="M0 0 C1.23073242 -0.01836914 1.23073242 -0.01836914 2.48632812 -0.03710938 C3.67838867 -0.04000977 3.67838867 -0.04000977 4.89453125 -0.04296875 C5.6213208 -0.04707764 6.34811035 -0.05118652 7.09692383 -0.05541992 C9.62253496 0.23805002 11.11837039 0.69048515 13.1875 2.1875 C14.20650001 5.90333579 14.31899939 9.46240321 14.33276367 13.30029297 C14.33914352 14.51280731 14.34552338 15.72532166 14.35209656 16.97457886 C14.35320938 18.27976471 14.3543222 19.58495056 14.35546875 20.9296875 C14.35868811 22.29908278 14.36205268 23.66847773 14.36555481 25.03787231 C14.37153667 27.91099847 14.37339603 30.78409462 14.37280273 33.65722656 C14.37270196 37.29558296 14.38626944 40.93374046 14.40357494 44.57205009 C14.41483855 47.40523109 14.41671749 50.23836647 14.41619301 53.07156754 C14.41791162 55.05137844 14.42867194 57.03117511 14.43974304 59.01095581 C14.4028102 73.94476117 14.01139879 90.02942165 3.16015625 101.43359375 C-5.64066408 109.25848153 -16.38578382 110.6855624 -27.828125 110.43359375 C-36.27904476 109.73672471 -43.88163329 107.48065948 -49.8125 101.1875 C-55.83761812 93.47240973 -55.88735779 84.51288653 -54.8125 75.1875 C-53.34048469 70.29383209 -50.21849456 66.74912475 -45.8125 64.1875 C-39.82699275 63.68025362 -39.82699275 63.68025362 -36.8125 65.1875 C-35.62488556 72.75854204 -38.90680009 77.00124902 -43.16015625 82.94140625 C-45.19573023 86.94037074 -44.97156487 88.90866141 -43.8125 93.1875 C-40.30039321 97.57763349 -36.8530401 99.78583111 -31.26953125 100.5234375 C-23.52506544 100.63783138 -16.79035065 99.57354236 -10.73828125 94.421875 C-5.15855189 88.47952172 -2.81521134 82.2091907 -1.8125 74.1875 C-2.369375 74.17332031 -2.92625 74.15914063 -3.5 74.14453125 C-9.64847343 73.76025166 -14.22679469 72.42565712 -18.8125 68.1875 C-26.24587929 58.44664155 -27.94916657 48.22764069 -26.8125 36.1875 C-24.527573 20.64340524 -17.70053902 0.01371072 0 0 Z M-9.4375 16.1875 C-15.07513437 23.30872237 -15.30959082 30.43306629 -15.25 39.1875 C-15.26998047 40.2290625 -15.28996094 41.270625 -15.31054688 42.34375 C-15.30646655 48.80699054 -14.59629355 53.82726453 -10.8125 59.1875 C-7.39961518 62.60296236 -7.39961518 62.60296236 -2.8125 63.1875 C1.3894936 54.7835128 -0.70757759 40.07766934 -0.6875 30.9375 C-0.68290771 29.74713135 -0.67831543 28.5567627 -0.67358398 27.33032227 C-0.67559814 26.20553467 -0.6776123 25.08074707 -0.6796875 23.921875 C-0.68081543 22.91350586 -0.68194336 21.90513672 -0.68310547 20.86621094 C-0.7984514 18.47833254 -1.12919939 16.46878765 -1.8125 14.1875 C-5.35123029 13.6819671 -6.54556449 13.98412056 -9.4375 16.1875 Z " fill="#FEFEFE" transform="translate(54.8125,15.8125)"/>
</svg>
